<svg width="285" height="167" viewBox="0 0 285 167" fill="none" xmlns="http://www.w3.org/2000/svg">
<path d="M2.88004 77.76V0.960009H26.016L32.352 30.048L33.6 65.088H36.096L37.248 30.048L43.68 0.960009H66.72V77.76H52.32V54.144L55.104 13.632H52.512L48.48 55.104L42.528 77.76H27.072L21.216 55.104L17.088 13.632H14.592L17.28 54.144V77.76H2.88004ZM94.3793 78.72C87.3393 78.72 82.2353 77.232 79.0673 74.256C75.9313 71.28 74.2833 66.336 74.1233 59.424C74.0593 56.288 74.0113 53.024 73.9793 49.632C73.9473 46.24 73.9313 42.8 73.9313 39.312C73.9313 35.824 73.9473 32.384 73.9793 28.992C74.0113 25.6 74.0593 22.336 74.1233 19.2C74.2833 12.32 75.9313 7.40801 79.0673 4.46401C82.2353 1.488 87.3393 3.8147e-06 94.3793 3.8147e-06C101.451 3.8147e-06 106.523 1.488 109.595 4.46401C112.667 7.40801 114.315 12.32 114.539 19.2C114.667 22.4 114.763 25.696 114.827 29.088C114.891 32.48 114.923 35.92 114.923 39.408C114.923 42.864 114.891 46.288 114.827 49.68C114.763 53.04 114.667 56.288 114.539 59.424C114.315 66.336 112.667 71.28 109.595 74.256C106.523 77.232 101.451 78.72 94.3793 78.72ZM94.3793 67.008C96.2673 67.008 97.6913 66.592 98.6513 65.76C99.6113 64.896 100.107 63.68 100.139 62.112C100.299 58.848 100.411 55.264 100.475 51.36C100.539 47.456 100.571 43.44 100.571 39.312C100.571 35.184 100.539 31.168 100.475 27.264C100.411 23.36 100.299 19.776 100.139 16.512C100.107 14.976 99.5953 13.792 98.6033 12.96C97.6113 12.128 96.2033 11.712 94.3793 11.712C92.5553 11.712 91.1313 12.128 90.1073 12.96C89.1153 13.792 88.5873 14.976 88.5233 16.512C88.3953 19.776 88.2833 23.36 88.1873 27.264C88.1233 31.168 88.0913 35.184 88.0913 39.312C88.0913 43.44 88.1233 47.456 88.1873 51.36C88.2833 55.264 88.3953 58.848 88.5233 62.112C88.5873 63.68 89.1153 64.896 90.1073 65.76C91.1313 66.592 92.5553 67.008 94.3793 67.008ZM122.036 77.76V0.960009H141.524C148.724 0.960009 153.924 2.49601 157.124 5.56801C160.356 8.60801 162.036 13.632 162.164 20.64C162.26 25.088 162.324 29.312 162.356 33.312C162.388 37.312 162.388 41.312 162.356 45.312C162.324 49.312 162.26 53.536 162.164 57.984C162.036 65.024 160.356 70.08 157.124 73.152C153.924 76.224 148.724 77.76 141.524 77.76H122.036ZM136.436 65.088H141.524C143.54 65.088 145.076 64.624 146.132 63.696C147.188 62.768 147.732 61.44 147.764 59.712C147.86 56.288 147.924 52.88 147.956 49.488C148.02 46.096 148.052 42.704 148.052 39.312C148.052 35.92 148.02 32.528 147.956 29.136C147.924 25.712 147.86 22.304 147.764 18.912C147.732 17.216 147.188 15.92 146.132 15.024C145.076 14.096 143.54 13.632 141.524 13.632H136.436V65.088ZM169.568 77.76V0.960009H202.784V13.632H183.968V32.352H201.824V45.024H183.968V65.088H202.784V77.76H169.568ZM208.755 77.76V0.960009H227.283C234.451 0.960009 239.619 2.41601 242.787 5.32801C245.987 8.20801 247.699 12.992 247.923 19.68C247.987 21.472 248.019 23.04 248.019 24.384C248.051 25.728 248.051 27.072 248.019 28.416C248.019 29.76 247.987 31.328 247.923 33.12C247.795 37.28 247.091 40.688 245.811 43.344C244.563 46 242.611 48.032 239.955 49.44L248.979 77.76H233.715L226.419 51.84H223.155V77.76H208.755ZM223.155 39.168H227.283C229.299 39.168 230.819 38.704 231.843 37.776C232.867 36.848 233.427 35.552 233.523 33.888C233.619 32.32 233.683 30.688 233.715 28.992C233.747 27.264 233.747 25.552 233.715 23.856C233.683 22.128 233.619 20.48 233.523 18.912C233.427 17.216 232.867 15.92 231.843 15.024C230.819 14.096 229.299 13.632 227.283 13.632H223.155V39.168ZM254.505 77.76V0.960009H275.337L281.097 25.44L286.377 65.088H288.873L286.185 33.888L285.033 0.960009H298.953V77.76H277.065L271.305 52.608L267.369 13.536H264.681L267.177 48.288L268.425 77.76H254.505ZM3.91304e-05 165.76L10.656 88.96H33.312L43.968 165.76H29.184L27.552 149.728H16.416L14.784 165.76H3.91304e-05ZM17.76 137.056H26.208L24.48 120.064L23.328 101.632H20.64L19.488 120.064L17.76 137.056ZM48.7238 165.76V88.96H67.2518C74.4198 88.96 79.5878 90.416 82.7558 93.328C85.9558 96.208 87.6678 100.992 87.8918 107.68C87.9558 109.472 87.9878 111.04 87.9878 112.384C88.0198 113.728 88.0198 115.072 87.9878 116.416C87.9878 117.76 87.9558 119.328 87.8918 121.12C87.7638 125.28 87.0598 128.688 85.7798 131.344C84.5318 134 82.5798 136.032 79.9238 137.44L88.9478 165.76H73.6838L66.3878 139.84H63.1238V165.76H48.7238ZM63.1238 127.168H67.2518C69.2678 127.168 70.7878 126.704 71.8118 125.776C72.8358 124.848 73.3958 123.552 73.4918 121.888C73.5878 120.32 73.6518 118.688 73.6838 116.992C73.7158 115.264 73.7158 113.552 73.6838 111.856C73.6518 110.128 73.5878 108.48 73.4918 106.912C73.3958 105.216 72.8358 103.92 71.8118 103.024C70.7878 102.096 69.2678 101.632 67.2518 101.632H63.1238V127.168ZM103.546 165.76V101.632H91.2098V88.96H130.282V101.632H117.946V165.76H103.546ZM174.913 166.72C170.081 166.72 166.209 166.08 163.297 164.8C160.385 163.488 158.257 161.424 156.913 158.608C155.569 155.76 154.817 152.032 154.657 147.424C154.561 144.736 154.481 141.68 154.417 138.256C154.385 134.8 154.369 131.248 154.369 127.6C154.369 123.952 154.385 120.432 154.417 117.04C154.481 113.648 154.561 110.656 154.657 108.064C154.849 103.2 155.633 99.296 157.009 96.352C158.417 93.408 160.561 91.28 163.441 89.968C166.353 88.656 170.177 88 174.913 88C181.633 88 186.529 89.488 189.601 92.464C192.705 95.408 194.465 100.32 194.881 107.2C194.977 108.672 195.025 110.432 195.025 112.48C195.025 114.496 194.977 116.256 194.881 117.76H180.481C180.577 115.968 180.625 113.76 180.625 111.136C180.625 108.48 180.577 106.272 180.481 104.512C180.385 102.976 179.857 101.792 178.897 100.96C177.937 100.128 176.609 99.712 174.913 99.712C173.057 99.712 171.633 100.128 170.641 100.96C169.681 101.792 169.153 102.976 169.057 104.512C168.865 107.872 168.721 111.504 168.625 115.408C168.529 119.28 168.481 123.248 168.481 127.312C168.481 131.376 168.529 135.36 168.625 139.264C168.721 143.136 168.865 146.752 169.057 150.112C169.153 151.68 169.681 152.896 170.641 153.76C171.633 154.592 173.057 155.008 174.913 155.008C176.737 155.008 178.193 154.592 179.281 153.76C180.401 152.896 181.025 151.68 181.153 150.112C181.217 149.376 181.249 148.416 181.249 147.232C181.281 146.016 181.281 144.816 181.249 143.632C181.249 142.416 181.217 141.44 181.153 140.704H175.873V128.224H195.169C195.329 131.136 195.393 134.336 195.361 137.824C195.329 141.28 195.233 144.48 195.073 147.424C194.753 154.336 193.025 159.28 189.889 162.256C186.785 165.232 181.793 166.72 174.913 166.72ZM198.844 165.76L209.5 88.96H232.156L242.812 165.76H228.028L226.396 149.728H215.26L213.628 165.76H198.844ZM216.604 137.056H225.052L223.324 120.064L222.172 101.632H219.484L218.332 120.064L216.604 137.056ZM247.568 165.76V88.96H261.968V153.088H280.88V165.76H247.568ZM286.193 165.76V88.96H300.593V153.088H319.505V165.76H286.193ZM324.818 165.76V88.96H358.034V101.632H339.218V120.352H357.074V133.024H339.218V153.088H358.034V165.76H324.818ZM364.005 165.76V88.96H382.533C389.701 88.96 394.869 90.416 398.037 93.328C401.237 96.208 402.949 100.992 403.173 107.68C403.237 109.472 403.269 111.04 403.269 112.384C403.301 113.728 403.301 115.072 403.269 116.416C403.269 117.76 403.237 119.328 403.173 121.12C403.045 125.28 402.341 128.688 401.061 131.344C399.813 134 397.861 136.032 395.205 137.44L404.229 165.76H388.965L381.669 139.84H378.405V165.76H364.005ZM378.405 127.168H382.533C384.549 127.168 386.069 126.704 387.093 125.776C388.117 124.848 388.677 123.552 388.773 121.888C388.869 120.32 388.933 118.688 388.965 116.992C388.997 115.264 388.997 113.552 388.965 111.856C388.933 110.128 388.869 108.48 388.773 106.912C388.677 105.216 388.117 103.92 387.093 103.024C386.069 102.096 384.549 101.632 382.533 101.632H378.405V127.168ZM417.191 165.76V147.52V147.424L402.791 88.96H417.479L421.607 107.584L423.047 130.144H425.735L427.175 107.584L431.303 88.96H445.991L431.591 147.424V147.52V165.76H417.191Z" fill="white"/>
</svg>
